<svg xmlns="http://www.w3.org/2000/svg" xmlns:xlink="http://www.w3.org/1999/xlink" width="72.397" height="63.586" viewBox="0 0 72.397 63.586">
  <defs>
    <filter id="Path_11" x="0" y="0" width="72.397" height="63.586" filterUnits="userSpaceOnUse">
      <feOffset dy="3" input="SourceAlpha"/>
      <feGaussianBlur stdDeviation="3" result="blur"/>
      <feFlood flood-opacity="0.161"/>
      <feComposite operator="in" in2="blur"/>
      <feComposite in="SourceGraphic"/>
    </filter>
  </defs>
  <g id="Group_717" data-name="Group 717" transform="translate(-329.242 -842.277)">
    <g id="Group_12" data-name="Group 12" transform="translate(338.242 848.277)">
      <g transform="matrix(1, 0, 0, 1, -9, -6)" filter="url(#Path_11)">
        <path id="Path_11-2" data-name="Path 11" d="M14,2.878c12.054-4.05,24.788-4.673,33.786,3.738s7.3,22.586,3.735,28.661S38.958,46.648,25.546,45.4,3.3,37.77.758,29.826,1.947,6.928,14,2.878Z" transform="translate(63.4 51.59) rotate(180)" fill="#f5b54d"/>
      </g>
    </g>
    <path id="clipboard-list-solid" d="M18.711,3.564H14.256a3.564,3.564,0,0,0-7.128,0H2.673A2.674,2.674,0,0,0,0,6.237v19.6a2.674,2.674,0,0,0,2.673,2.673H18.711a2.674,2.674,0,0,0,2.673-2.673V6.237A2.674,2.674,0,0,0,18.711,3.564ZM5.346,23.612a1.337,1.337,0,1,1,1.337-1.337A1.333,1.333,0,0,1,5.346,23.612Zm0-5.346a1.337,1.337,0,1,1,1.337-1.337A1.333,1.333,0,0,1,5.346,18.266Zm0-5.346a1.337,1.337,0,1,1,1.337-1.337A1.333,1.333,0,0,1,5.346,12.92ZM10.692,2.228A1.337,1.337,0,1,1,9.356,3.564,1.333,1.333,0,0,1,10.692,2.228ZM17.82,22.721a.447.447,0,0,1-.446.446H9.356a.447.447,0,0,1-.446-.446V21.83a.447.447,0,0,1,.446-.446h8.019a.447.447,0,0,1,.446.446Zm0-5.346a.447.447,0,0,1-.446.446H9.356a.447.447,0,0,1-.446-.446v-.891a.447.447,0,0,1,.446-.446h8.019a.447.447,0,0,1,.446.446Zm0-5.346a.447.447,0,0,1-.446.446H9.356a.447.447,0,0,1-.446-.446v-.891a.447.447,0,0,1,.446-.446h8.019a.447.447,0,0,1,.446.446Z" transform="translate(354.749 855.296)" fill="#fff"/>
  </g>
</svg>
