<svg xmlns="http://www.w3.org/2000/svg" width="28.178" height="37.571" viewBox="0 0 28.178 37.571">
  <path id="clipboard-list-solid" d="M24.656,4.7h-5.87a4.7,4.7,0,1,0-9.393,0H3.522A3.523,3.523,0,0,0,0,8.219v25.83a3.523,3.523,0,0,0,3.522,3.522H24.656a3.523,3.523,0,0,0,3.522-3.522V8.219A3.523,3.523,0,0,0,24.656,4.7ZM7.045,31.113a1.761,1.761,0,1,1,1.761-1.761A1.757,1.757,0,0,1,7.045,31.113Zm0-7.045a1.761,1.761,0,1,1,1.761-1.761A1.757,1.757,0,0,1,7.045,24.069Zm0-7.045a1.761,1.761,0,1,1,1.761-1.761A1.757,1.757,0,0,1,7.045,17.024ZM14.089,2.935A1.761,1.761,0,1,1,12.328,4.7,1.757,1.757,0,0,1,14.089,2.935Zm9.393,27a.589.589,0,0,1-.587.587H12.328a.589.589,0,0,1-.587-.587V28.765a.589.589,0,0,1,.587-.587H22.895a.589.589,0,0,1,.587.587Zm0-7.045a.589.589,0,0,1-.587.587H12.328a.589.589,0,0,1-.587-.587V21.721a.589.589,0,0,1,.587-.587H22.895a.589.589,0,0,1,.587.587Zm0-7.045a.589.589,0,0,1-.587.587H12.328a.589.589,0,0,1-.587-.587V14.676a.589.589,0,0,1,.587-.587H22.895a.589.589,0,0,1,.587.587Z" fill="#5e7c60"/>
</svg>
