<svg xmlns="http://www.w3.org/2000/svg" width="163.12" height="86.888" viewBox="0 0 163.12 86.888">
  <g id="Group_850" data-name="Group 850" transform="translate(-459.464 -2955)">
    <path id="Path_25" data-name="Path 25" d="M185.07-48.606c20.6-4.715,86.092-11.746,112.189,0S320.3-11.232,307.3-.464s-27.383,7.9-50.474,9.07-85.28,3.409-95.248-9.07c-9.813-11.41-9.069-21.441-3.957-32.956S174.913-46.281,185.07-48.606Z" transform="translate(305.524 3032.337)" fill="#b2d297"/>
    <g id="Layer_12" data-name="Layer 12" transform="translate(504.582 2955) rotate(18)">
      <g id="Group_3" data-name="Group 3" transform="translate(0 0)">
        <path id="Path_3" data-name="Path 3" d="M11.295,50.381c-.439-1.637-.77-3.157-1.257-4.626A59.927,59.927,0,0,1,7.427,34.167c-.029-.24-.044-.482-.094-.716-.707-3.335-1.438-6.664-2.117-10-.239-1.175-.357-2.375-.526-3.565C4.1,15.721,3.524,11.56,2.909,7.4c-.186-1.246-.493-2.472-.726-3.712A2.547,2.547,0,0,1,3.827.727C6.691-.55,9.476.03,12.2,1.122a11.921,11.921,0,0,1,5.257,3.962,28.248,28.248,0,0,1,1.691,3.14c.891,1.611,1.816,3.2,2.72,4.808a19.1,19.1,0,0,0,1.322,2.343,6.741,6.741,0,0,0,5.189,2.491c.531.035,1.065.047,1.621.072,0,.771-.489.977-1.013,1.136A8.049,8.049,0,0,1,20.933,17.3a57.6,57.6,0,0,1-8.208-9.065A15.233,15.233,0,0,0,6.311,3.31c.087.748.112,1.248.208,1.735.635,3.227,1.289,6.452,1.928,9.679.9,4.521,1.765,9.046,2.683,13.562.845,4.156,1.8,8.291,2.6,12.454.96,5.011,2.61,9.839,3.768,14.793a27.778,27.778,0,0,1,.891,6.392,8.739,8.739,0,0,1-4.625,8.159c-.582.315-1.138.675-1.724.982a7.138,7.138,0,0,1-7.53-.323A9.061,9.061,0,0,1,.071,63.126,21.546,21.546,0,0,1,.1,59.355a4.4,4.4,0,0,1,1.046-1.992c.714-.877,1.693-1.551,2.34-2.468A9.6,9.6,0,0,1,10.335,50.7,6.844,6.844,0,0,0,11.295,50.381Z" transform="translate(0 0)" fill="#5e7c60" fill-rule="evenodd"/>
      </g>
    </g>
  </g>
</svg>
