<svg xmlns="http://www.w3.org/2000/svg" xmlns:xlink="http://www.w3.org/1999/xlink" width="160" height="344" viewBox="0 0 160 344">
  <defs>
    <linearGradient id="linear-gradient" x1="0.883" y1="1" x2="-0.06" y2="1" gradientUnits="objectBoundingBox">
      <stop offset="0" stop-color="#ddd" stop-opacity="0.702"/>
      <stop offset="1" stop-color="#fff" stop-opacity="0"/>
    </linearGradient>
    <filter id="Line_18" x="2.651" y="123.352" width="57.733" height="57.733" filterUnits="userSpaceOnUse">
      <feOffset dy="3" input="SourceAlpha"/>
      <feGaussianBlur stdDeviation="3" result="blur"/>
      <feFlood flood-opacity="0.161"/>
      <feComposite operator="in" in2="blur"/>
      <feComposite in="SourceGraphic"/>
    </filter>
  </defs>
  <g id="Group_830" data-name="Group 830" transform="translate(1760 3338) rotate(180)">
    <g id="Group_490" data-name="Group 490">
      <path id="Rectangle_626" data-name="Rectangle 626" d="M0,0H140a20,20,0,0,1,20,20V324a20,20,0,0,1-20,20H0a0,0,0,0,1,0,0V0A0,0,0,0,1,0,0Z" transform="translate(1600 2994)" fill="url(#linear-gradient)"/>
      <g id="Group_289" data-name="Group 289" transform="translate(1712.151 3205.113) rotate(-90)">
        <line id="Line_17" data-name="Line 17" x1="32.662" y2="32.662" transform="translate(32.662)" fill="none" stroke="#fff" stroke-linecap="round" stroke-width="5"/>
        <g transform="matrix(0, -1, 1, 0, -132.89, 47.85)" filter="url(#Line_18)">
          <line id="Line_18-2" data-name="Line 18" x2="32.662" y2="32.662" transform="translate(47.85 132.89) rotate(90)" fill="none" stroke="#fff" stroke-linecap="round" stroke-width="5"/>
        </g>
      </g>
    </g>
  </g>
</svg>
