<svg xmlns="http://www.w3.org/2000/svg" width="163.12" height="91.882" viewBox="0 0 163.12 91.882">
  <g id="Group_886" data-name="Group 886" transform="translate(-624.101 -1275.42)">
    <g id="Group_882" data-name="Group 882" transform="translate(624.102 1267.702)">
      <path id="Path_28" data-name="Path 28" d="M185.07-48.606c17.407-3.984,66.868-9.622,97.816-4.136a62.307,62.307,0,0,1,14.373,4.136C323.356-36.86,320.3-11.232,307.3-.464s-27.383,7.9-50.474,9.07c-11.938.6-54.788.478-54.788.478S166.4,5.564,161.58-.464c-9.813-11.41-9.069-21.441-3.957-32.956S174.913-46.281,185.07-48.606Z" transform="translate(-153.939 90.505)" fill="#fee0dc"/>
    </g>
    <g id="Layer_12" data-name="Layer 12" transform="translate(677.35 1275.42) rotate(18)">
      <g id="Group_3" data-name="Group 3" transform="translate(0 0)">
        <path id="Path_3" data-name="Path 3" d="M11.961,53.351c-.465-1.734-.816-3.343-1.331-4.9A63.46,63.46,0,0,1,7.865,36.181c-.031-.254-.046-.51-.1-.758-.748-3.532-1.523-7.057-2.241-10.594-.254-1.244-.378-2.515-.557-3.776C4.34,16.648,3.731,12.241,3.081,7.839c-.2-1.319-.522-2.618-.769-3.93A2.7,2.7,0,0,1,4.052.77c3.034-1.352,5.983-.739,8.867.418a12.624,12.624,0,0,1,5.567,4.2,29.914,29.914,0,0,1,1.791,3.325c.944,1.706,1.923,3.394,2.88,5.091a20.23,20.23,0,0,0,1.4,2.481,7.138,7.138,0,0,0,5.5,2.638c.562.037,1.127.05,1.717.077,0,.817-.518,1.034-1.072,1.2a8.523,8.523,0,0,1-8.529-1.875,61,61,0,0,1-8.692-9.6A16.131,16.131,0,0,0,6.683,3.506c.092.792.119,1.322.22,1.837.673,3.418,1.365,6.832,2.041,10.25.949,4.787,1.869,9.579,2.841,14.361.895,4.4,1.906,8.78,2.75,13.189,1.017,5.307,2.764,10.419,3.99,15.666a29.415,29.415,0,0,1,.943,6.769c-.025,3.683-1.474,6.774-4.9,8.64-.616.334-1.205.715-1.826,1.04a7.558,7.558,0,0,1-7.974-.343,9.6,9.6,0,0,1-4.7-8.067A22.817,22.817,0,0,1,.1,62.855,4.659,4.659,0,0,1,1.21,60.746C1.966,59.817,3,59.1,3.688,58.132a10.167,10.167,0,0,1,7.257-4.439A7.248,7.248,0,0,0,11.961,53.351Z" transform="translate(0 0)" fill="#a1957d" fill-rule="evenodd"/>
      </g>
    </g>
  </g>
</svg>
