<svg xmlns="http://www.w3.org/2000/svg" width="67.191" height="61.159" viewBox="0 0 67.191 61.159">
  <g id="Group_205" data-name="Group 205" opacity="1">
    <g id="Group_204" data-name="Group 204">
      <path id="Path_227" data-name="Path 227" d="M92.172,241.661H84.924a3.622,3.622,0,0,0-3.624,3.621,3.624,3.624,0,0,1-7.248,0,3.623,3.623,0,0,0-3.624-3.621h-9.06a3.622,3.622,0,0,0-3.624,3.621,3.624,3.624,0,0,1-7.248,0,3.623,3.623,0,0,0-3.624-3.621H39.624A3.622,3.622,0,0,0,36,245.282V290.55a3.623,3.623,0,0,0,3.624,3.621H67.092a21.12,21.12,0,0,1,28.7-26.909v-21.98A3.623,3.623,0,0,0,92.172,241.661Zm-45.3,43.779a3.621,3.621,0,1,1,3.624-3.621A3.622,3.622,0,0,1,46.872,285.44Zm0-10.864a3.621,3.621,0,1,1,3.624-3.621A3.622,3.622,0,0,1,46.872,274.576ZM57.744,285.44a3.621,3.621,0,1,1,3.624-3.621A3.622,3.622,0,0,1,57.744,285.44Zm0-10.864a3.621,3.621,0,1,1,3.624-3.621A3.622,3.622,0,0,1,57.744,274.576Zm0-10.864a3.621,3.621,0,1,1,3.624-3.621A3.622,3.622,0,0,1,57.744,263.712Zm10.872,0a3.621,3.621,0,1,1,3.624-3.621A3.622,3.622,0,0,1,68.616,263.712Z" transform="translate(-36 -241.661)" fill="#97bc78"/>
      <path id="Path_228" data-name="Path 228" d="M71.64,257.339a16.64,16.64,0,1,0,16.64,16.64A16.64,16.64,0,0,0,71.64,257.339ZM73.951,274.9a2.311,2.311,0,0,1-2.311,2.311H62.4a2.311,2.311,0,1,1,0-4.622h6.933V263.81a2.311,2.311,0,0,1,4.622,0Z" transform="translate(-21.088 -229.46)" fill="#97bc78"/>
    </g>
  </g>
</svg>
