<svg xmlns="http://www.w3.org/2000/svg" width="61.165" height="61.159" viewBox="0 0 61.165 61.159">
  <g id="Group_207" data-name="Group 207" opacity="1">
    <g id="Group_206" data-name="Group 206">
      <path id="Path_229" data-name="Path 229" d="M256.327,203.111a5.315,5.315,0,1,0,5.315,5.315A5.315,5.315,0,0,0,256.327,203.111Zm26.808,0a5.315,5.315,0,1,0,5.315,5.315A5.315,5.315,0,0,0,283.136,203.111Z" transform="translate(-235.351 -152.583)" fill="#97bc78"/>
      <path id="Path_230" data-name="Path 230" d="M297.97,180.964H255.834l-1.4-5.213a4.568,4.568,0,0,0-4.5-3.612h-6.883a2.823,2.823,0,1,0,0,5.644h5.906l7.883,29.381-3.138,6.987a2.743,2.743,0,0,0,.237,2.672,2.938,2.938,0,0,0,2.437,1.274h36.64a2.823,2.823,0,1,0,0-5.644H260.822l1.765-3.931c.02-.045.02-.1.037-.144h30.251a3.311,3.311,0,0,0,3.243-2.487l5.095-20.963A3.252,3.252,0,0,0,297.97,180.964Zm-28.291,17.849a2.083,2.083,0,0,1-4.164,0v-8.285a2.083,2.083,0,0,1,4.164,0Zm9.993,0a2.083,2.083,0,0,1-4.164,0v-8.285a2.083,2.083,0,0,1,4.164,0Zm9.993,0a2.083,2.083,0,0,1-4.164,0v-8.285a2.083,2.083,0,0,1,4.164,0Z" transform="translate(-240.137 -172.139)" fill="#97bc78"/>
    </g>
  </g>
</svg>
