<svg xmlns="http://www.w3.org/2000/svg" width="70.719" height="61.159" viewBox="0 0 70.719 61.159">
  <g id="Group_203" data-name="Group 203" opacity="1">
    <g id="Group_202" data-name="Group 202">
      <path id="Path_225" data-name="Path 225" d="M434.781,415.388c0,.09-.017.176-.021.264s.021.144.021.219Zm-1.856-15.644H413.4a4.189,4.189,0,0,1-4.276-4.1v-7.863a8.4,8.4,0,0,0-8.833-8.2,4.13,4.13,0,0,0-3.993,4.1v8.2c0,5.813-8.551,9.913-8.551,14.013v26.221a4.073,4.073,0,0,0,2.27,3.622c.78.4,1.7.863,2.655,1.355a33.171,33.171,0,0,0,15.155,3.649h16.544a6.009,6.009,0,0,0,6.131-5.879v-.541a5.62,5.62,0,0,0-.716-2.7,5.814,5.814,0,0,0,2.854-4.954V425.1a5.743,5.743,0,0,0-1.866-4.214,5.889,5.889,0,0,0,3.983-5.229,5.711,5.711,0,0,0-1.518-3.64,5.977,5.977,0,0,0,5.815-5.848v-.541A6.009,6.009,0,0,0,432.925,399.744Z" transform="translate(-368.337 -379.582)" fill="#97bc78"/>
      <path id="Path_226" data-name="Path 226" d="M391.116,390.418H378.174a.925.925,0,0,0-.924.924v29.582a.925.925,0,0,0,.924.924h12.942a.925.925,0,0,0,.924-.924V391.342A.925.925,0,0,0,391.116,390.418ZM384.645,416.3a2.773,2.773,0,1,1,2.773-2.773A2.774,2.774,0,0,1,384.645,416.3Z" transform="translate(-377.25 -364.387)" fill="#97bc78"/>
    </g>
  </g>
</svg>
