<svg xmlns="http://www.w3.org/2000/svg" width="78.794" height="61.159" viewBox="0 0 78.794 61.159">
  <g id="Group_210" data-name="Group 210" opacity="1">
    <g id="Group_209" data-name="Group 209" transform="translate(0)">
      <path id="Path_231" data-name="Path 231" d="M111.772,154.716s-3.033-23.008-3.5-25.832c-1.752-10.524-6.982-17.63-15.759-18.13V110.7H52.239v.048c-8.778.5-14.007,5.692-15.759,18.13-.4,2.836-3.5,25.832-3.5,25.832l.044.014c-.022.312-.044.624-.044.943,0,6.868,5.1,12.438,11.382,12.438a11.178,11.178,0,0,0,9.588-5.757l.042.016,6.392-11.548a3.441,3.441,0,0,1,2.987-1.847H81.38a3.441,3.441,0,0,1,2.987,1.847l6.392,11.548.042-.016a11.178,11.178,0,0,0,9.588,5.757c6.286,0,11.382-5.569,11.382-12.438,0-.318-.022-.63-.044-.943ZM88.85,118.762a4.047,4.047,0,1,1-3.661,4.028A3.857,3.857,0,0,1,88.85,118.762ZM61.392,134.876H59.561v2.014a3.678,3.678,0,1,1-7.322,0v-2.014H50.409a4.047,4.047,0,0,1,0-8.057h1.831V124.8a3.678,3.678,0,1,1,7.322,0v2.014h1.831a4.047,4.047,0,0,1,0,8.057Zm20.136,0a4.047,4.047,0,1,1,3.661-4.028A3.858,3.858,0,0,1,81.528,134.876Zm7.322,8.057a4.047,4.047,0,1,1,3.661-4.028A3.858,3.858,0,0,1,88.85,142.932Zm7.322-8.057a4.047,4.047,0,1,1,3.661-4.028A3.858,3.858,0,0,1,96.172,134.876Z" transform="translate(-32.978 -106.951)" fill="#97bc78"/>
      <path id="Path_232" data-name="Path 232" d="M59.732,105.795H46.146c-1.875,0-3.4.428-3.4.956s1.522.956,3.4.956H59.732c1.875,0,3.4-.427,3.4-.956S61.607,105.795,59.732,105.795Zm43.475,0H89.621c-1.875,0-3.4.428-3.4.956s1.522.956,3.4.956h13.586c1.875,0,3.4-.427,3.4-.956S105.082,105.795,103.207,105.795Z" transform="translate(-35.279 -105.795)" fill="#97bc78"/>
    </g>
  </g>
</svg>
