<svg id="Group_173" data-name="Group 173" xmlns="http://www.w3.org/2000/svg" width="69.423" height="61.159" viewBox="0 0 69.423 61.159">
  <g id="Group_172" data-name="Group 172" transform="translate(0)">
    <path id="Path_209" data-name="Path 209" d="M192.955,308.211a1.147,1.147,0,0,0-1.6.272l-3.315,4.67-2.492-3.185a1.147,1.147,0,1,0-1.806,1.414l3.44,4.4a1.148,1.148,0,0,0,.9.44h.027a1.149,1.149,0,0,0,.908-.483l4.2-5.925A1.147,1.147,0,0,0,192.955,308.211Z" transform="translate(-154.783 -308)" fill="#97bc78"/>
    <path id="Path_210" data-name="Path 210" d="M232.312,316h-56.2c-3.651,0-6.612,3.4-6.612,7.592v39.859c0,4.193,2.96,7.592,6.612,7.592h56.2c3.651,0,6.612-3.4,6.612-7.592V323.592C238.923,319.4,235.963,316,232.312,316Zm-14.876,39.859c0,4.193-2.96,7.592-6.612,7.592h-28.1c-3.651,0-6.612-3.4-6.612-7.592V331.184c0-4.193,2.96-7.592,6.612-7.592h28.1c3.651,0,6.612,3.4,6.612,7.592Zm9.918.571a4.409,4.409,0,1,1,3.8-4.367A4.114,4.114,0,0,1,227.353,356.43Zm0-17.082a4.409,4.409,0,1,1,3.8-4.367A4.114,4.114,0,0,1,227.353,339.348Z" transform="translate(-169.5 -309.884)" fill="#97bc78"/>
  </g>
</svg>
