<svg xmlns="http://www.w3.org/2000/svg" width="70.327" height="61.159" viewBox="0 0 70.327 61.159">
  <g id="Group_176" data-name="Group 176" opacity="1">
    <g id="Group_175" data-name="Group 175">
      <g id="Group_174" data-name="Group 174">
        <path id="Path_211" data-name="Path 211" d="M317.769,107.621a3.166,3.166,0,0,1-2.027-2.027.374.374,0,0,0-.69,0,3.167,3.167,0,0,1-2.028,2.027.374.374,0,0,0,0,.69,3.167,3.167,0,0,1,2.028,2.027.374.374,0,0,0,.69,0,3.166,3.166,0,0,1,2.027-2.027A.374.374,0,0,0,317.769,107.621Z" transform="translate(-300.81 -105.363)" fill="#97bc78"/>
        <path id="Path_212" data-name="Path 212" d="M360.784,113.829a6.315,6.315,0,0,1,4.038,4.047.744.744,0,0,0,1.374,0,6.315,6.315,0,0,1,4.038-4.047.747.747,0,0,0,0-1.377,6.315,6.315,0,0,1-4.038-4.047.745.745,0,0,0-1.374,0,6.315,6.315,0,0,1-4.038,4.047A.747.747,0,0,0,360.784,113.829ZM316.7,150a6.315,6.315,0,0,1-4.038-4.047.745.745,0,0,0-1.374,0A6.315,6.315,0,0,1,307.251,150a.747.747,0,0,0,0,1.377,6.315,6.315,0,0,1,4.038,4.047.744.744,0,0,0,1.374,0,6.315,6.315,0,0,1,4.038-4.047A.747.747,0,0,0,316.7,150Zm57.527-23.128-16.222-3.144a3.575,3.575,0,0,1-2.405-1.709l-8.592-14.761a3.565,3.565,0,0,0-6.165,0l-8.594,14.761a3.568,3.568,0,0,1-2.4,1.709l-15.578,3.018a3.579,3.579,0,0,0-2.029,5.842L323.294,145.5a3.581,3.581,0,0,1,.842,2.7l-1.463,14a3.57,3.57,0,0,0,5.573,3.319,3.247,3.247,0,0,0,1.4-2.673v-2.882a11.494,11.494,0,0,1,11.481-11.5h5.591a11.492,11.492,0,0,1,11.479,11.5v2.882a3.244,3.244,0,0,0,1.4,2.673l.576.4a3.568,3.568,0,0,0,5.589-3.054l-.4-13.223a3.583,3.583,0,0,1,.639-2.151l10.466-15.056A3.578,3.578,0,0,0,374.228,126.875Zm-30.3,16.216a8.941,8.941,0,1,1,8.922-8.941A8.931,8.931,0,0,1,343.924,143.091Z" transform="translate(-306.794 -105.392)" fill="#97bc78"/>
      </g>
    </g>
  </g>
</svg>
