<svg xmlns="http://www.w3.org/2000/svg" xmlns:xlink="http://www.w3.org/1999/xlink" width="181.12" height="101.006" viewBox="0 0 181.12 101.006">
  <defs>
    <filter id="Path_27" x="0" y="18.417" width="181.12" height="82.589" filterUnits="userSpaceOnUse">
      <feOffset dx="3" dy="3" input="SourceAlpha"/>
      <feGaussianBlur stdDeviation="3" result="blur"/>
      <feFlood flood-opacity="0.161"/>
      <feComposite operator="in" in2="blur"/>
      <feComposite in="SourceGraphic"/>
    </filter>
  </defs>
  <g id="Group_934" data-name="Group 934" transform="translate(-372.55 -676.296)">
    <g transform="matrix(1, 0, 0, 1, 372.55, 676.3)" filter="url(#Path_27)">
      <path id="Path_27-2" data-name="Path 27" d="M185.07-48.606c20.6-4.715,86.092-11.746,112.189,0S320.3-11.232,307.3-.464s-27.383,7.9-50.474,9.07-85.28,3.409-95.248-9.07c-9.813-11.41-9.069-21.441-3.957-32.956S174.913-46.281,185.07-48.606Z" transform="translate(-147.94 79.46)" fill="#e4eded"/>
    </g>
    <g id="Layer_12" data-name="Layer 12" transform="translate(429.942 676.296) rotate(18)">
      <g id="Group_3" data-name="Group 3" transform="translate(0 0)">
        <path id="Path_3" data-name="Path 3" d="M11.018,49.148c-.428-1.6-.752-3.08-1.226-4.512a58.46,58.46,0,0,1-2.547-11.3c-.029-.234-.043-.47-.091-.7-.689-3.253-1.4-6.5-2.065-9.759-.234-1.146-.348-2.317-.513-3.478C4,15.336,3.437,11.277,2.838,7.221,2.657,6.006,2.357,4.809,2.13,3.6A2.484,2.484,0,0,1,3.733.709C6.528-.536,9.244.029,11.9,1.095a11.629,11.629,0,0,1,5.128,3.865,27.557,27.557,0,0,1,1.65,3.063c.869,1.571,1.771,3.126,2.653,4.69A18.636,18.636,0,0,0,22.622,15a6.576,6.576,0,0,0,5.062,2.43c.518.034,1.039.046,1.582.071,0,.753-.477.953-.988,1.108a7.852,7.852,0,0,1-7.857-1.727,56.192,56.192,0,0,1-8.007-8.843A14.86,14.86,0,0,0,6.156,3.229c.085.729.11,1.218.2,1.693.62,3.148,1.258,6.294,1.88,9.442.875,4.41,1.722,8.824,2.617,13.23.824,4.055,1.755,8.088,2.533,12.15.937,4.889,2.546,9.6,3.675,14.431a27.1,27.1,0,0,1,.869,6.236,8.525,8.525,0,0,1-4.511,7.959c-.568.307-1.11.659-1.682.958a6.963,6.963,0,0,1-7.345-.316A8.839,8.839,0,0,1,.069,61.581,21.019,21.019,0,0,1,.095,57.9a4.292,4.292,0,0,1,1.02-1.943c.7-.855,1.652-1.514,2.283-2.408a9.366,9.366,0,0,1,6.685-4.089A6.677,6.677,0,0,0,11.018,49.148Z" transform="translate(0 0)" fill="#97bc78" fill-rule="evenodd"/>
      </g>
    </g>
  </g>
</svg>
