<svg xmlns="http://www.w3.org/2000/svg" xmlns:xlink="http://www.w3.org/1999/xlink" width="181.12" height="102.464" viewBox="0 0 181.12 102.464">
  <defs>
    <filter id="Path_25" x="0" y="19.875" width="181.12" height="82.589" filterUnits="userSpaceOnUse">
      <feOffset dx="3" dy="3" input="SourceAlpha"/>
      <feGaussianBlur stdDeviation="3" result="blur"/>
      <feFlood flood-opacity="0.161"/>
      <feComposite operator="in" in2="blur"/>
      <feComposite in="SourceGraphic"/>
    </filter>
  </defs>
  <g id="Group_933" data-name="Group 933" transform="translate(-154 -676.913)">
    <g transform="matrix(1, 0, 0, 1, 154, 676.91)" filter="url(#Path_25)">
      <path id="Path_25-2" data-name="Path 25" d="M185.07-48.606c20.6-4.715,86.092-11.746,112.189,0S320.3-11.232,307.3-.464s-27.383,7.9-50.474,9.07-85.28,3.409-95.248-9.07c-9.813-11.41-9.069-21.441-3.957-32.956S174.913-46.281,185.07-48.606Z" transform="translate(-147.94 80.91)" fill="#b2d297"/>
    </g>
    <g id="Layer_12" data-name="Layer 12" transform="translate(211.966 676.913) rotate(18)">
      <g id="Group_3" data-name="Group 3" transform="translate(0 0)">
        <path id="Path_3" data-name="Path 3" d="M11.31,50.447c-.44-1.639-.771-3.161-1.258-4.632a60,60,0,0,1-2.614-11.6c-.029-.24-.044-.483-.094-.717-.707-3.339-1.44-6.673-2.119-10.017-.24-1.176-.357-2.378-.527-3.57-.593-4.166-1.169-8.333-1.784-12.5C2.727,6.165,2.419,4.936,2.186,3.7A2.55,2.55,0,0,1,3.832.728c2.868-1.279,5.657-.7,8.384.4A11.937,11.937,0,0,1,17.479,5.09a28.285,28.285,0,0,1,1.694,3.144c.892,1.613,1.818,3.209,2.723,4.814a19.129,19.129,0,0,0,1.323,2.346,6.749,6.749,0,0,0,5.2,2.494c.532.035,1.066.047,1.623.072,0,.772-.49.978-1.014,1.137a8.059,8.059,0,0,1-8.065-1.773,57.677,57.677,0,0,1-8.219-9.077A15.253,15.253,0,0,0,6.319,3.315c.087.749.112,1.25.208,1.737.636,3.232,1.291,6.46,1.93,9.692.9,4.527,1.768,9.057,2.686,13.579.846,4.162,1.8,8.3,2.6,12.471.962,5.018,2.613,9.852,3.772,14.813a27.814,27.814,0,0,1,.892,6.4,8.751,8.751,0,0,1-4.631,8.169c-.583.315-1.14.676-1.727.983a7.147,7.147,0,0,1-7.54-.324A9.073,9.073,0,0,1,.071,63.209,21.575,21.575,0,0,1,.1,59.433a4.405,4.405,0,0,1,1.047-1.995c.715-.878,1.7-1.554,2.343-2.471a9.614,9.614,0,0,1,6.862-4.2A6.853,6.853,0,0,0,11.31,50.447Z" transform="translate(0 0)" fill="#5e7c60" fill-rule="evenodd"/>
      </g>
    </g>
  </g>
</svg>
