<svg xmlns="http://www.w3.org/2000/svg" width="62.353" height="95.456" viewBox="0 0 62.353 95.456">
  <g id="Layer_12" data-name="Layer 12" transform="translate(27.317) rotate(18)">
    <g id="Group_3" data-name="Group 3" transform="translate(0 0)">
      <path id="Path_3" data-name="Path 3" d="M13.87,61.866c-.539-2.01-.946-3.877-1.543-5.68A73.588,73.588,0,0,1,9.12,41.956c-.036-.295-.054-.592-.115-.879-.868-4.1-1.766-8.183-2.6-12.285-.294-1.443-.438-2.917-.646-4.378C5.033,19.305,4.327,14.195,3.572,9.09c-.228-1.53-.605-3.036-.891-4.558A3.127,3.127,0,0,1,4.7.893c3.518-1.568,6.937-.857,10.282.485a14.639,14.639,0,0,1,6.455,4.865A34.687,34.687,0,0,1,23.513,10.1c1.094,1.978,2.23,3.935,3.34,5.9a23.459,23.459,0,0,0,1.623,2.877,8.277,8.277,0,0,0,6.372,3.059c.652.042,1.307.057,1.991.089,0,.947-.6,1.2-1.243,1.395a9.884,9.884,0,0,1-9.891-2.174A70.734,70.734,0,0,1,15.626,10.117,18.706,18.706,0,0,0,7.749,4.065C7.856,4.983,7.887,5.6,8,6.2c.78,3.963,1.583,7.923,2.367,11.886,1.1,5.552,2.168,11.108,3.294,16.653,1.038,5.1,2.21,10.181,3.189,15.294,1.179,6.154,3.2,12.083,4.626,18.166a34.11,34.11,0,0,1,1.094,7.849c-.029,4.271-1.709,7.855-5.679,10.019-.715.387-1.4.829-2.118,1.206a8.765,8.765,0,0,1-9.246-.4A11.126,11.126,0,0,1,.087,77.517a26.458,26.458,0,0,1,.032-4.63A5.4,5.4,0,0,1,1.4,70.441c.877-1.077,2.079-1.905,2.873-3.031a11.79,11.79,0,0,1,8.415-5.147A8.4,8.4,0,0,0,13.87,61.866Z" transform="translate(0 0)" fill="#97bc78" fill-rule="evenodd"/>
    </g>
  </g>
</svg>
