<svg xmlns="http://www.w3.org/2000/svg" width="73.265" height="101.994" viewBox="0 0 73.265 101.994">
  <g id="Group_376" data-name="Group 376" transform="translate(-310.527 -212.31)">
    <path id="Path_312" data-name="Path 312" d="M504.994,392.64a11.577,11.577,0,1,0-17.227,10.1l.24-7.68a5.693,5.693,0,0,1,5.694-5.691h.323a4.485,4.485,0,0,1,4.485,4.485v9.171A11.571,11.571,0,0,0,504.994,392.64Z" transform="translate(-146.259 -144.075)" fill="#fc5c75"/>
    <path id="Path_313" data-name="Path 313" d="M420.521,442.31a4.485,4.485,0,0,0-4.485-4.485h-.323a5.693,5.693,0,0,0-5.694,5.691l-.24,7.68-.533,16.921c-.121.522-.19,12.287-.19,12.287-.995-1.014-2.1-2.174-3.1-3.284a16.7,16.7,0,0,0-9.425-4.659,4.7,4.7,0,0,0-3.394.6,7.027,7.027,0,0,0-.7.616c-1.464,1.441-2.568,3.77-1.546,5.476a5.852,5.852,0,0,0,2.007,1.759,14.1,14.1,0,0,1,4.223,3.17c2.266,2.9,7.514,9.382,10.74,12.841.671.417,2.091,1.834,2.762,2.193a25.117,25.117,0,0,1,4.275,3.187,24.511,24.511,0,0,0,13.72,4.52c4.52,0,8.627.271,11.662-2.4h.162l.08-.2a15,15,0,0,0,5.007-11.08V472.433c0-1.016-.224-4.419-3.085-5.44a5.065,5.065,0,0,0-3.783.174l-.259.011-.08.005a4.348,4.348,0,0,0-3.579-3.4,5.986,5.986,0,0,0-4.684.95,4.923,4.923,0,0,0-5.261-2.8,6.109,6.109,0,0,0-4.275,2.289V442.31Z" transform="translate(-68.269 -192.533)" fill="#fded82"/>
    <path id="Path_314" data-name="Path 314" d="M372.991,267.786l2.3,2.557a1.053,1.053,0,0,0,1.632-.072,36.609,36.609,0,0,0-29.762-57.961,37.892,37.892,0,0,0-4.181.232,36.613,36.613,0,0,0-25.583,57.729,1.056,1.056,0,0,0,1.635.074l2.295-2.554a1.047,1.047,0,0,0,.074-1.3,31.193,31.193,0,1,1,51.512-.005A1.047,1.047,0,0,0,372.991,267.786Z" transform="translate(0 0)" fill="#fff"/>
    <path id="Path_315" data-name="Path 315" d="M447.838,341.472l2.433,2.706a1.059,1.059,0,0,0,1.734-.235,21.713,21.713,0,0,0,2.345-9.854,22.046,22.046,0,1,0-44.092,0,21.735,21.735,0,0,0,2.342,9.854,1.062,1.062,0,0,0,1.737.235l2.43-2.706a1.053,1.053,0,0,0,.182-1.11,16.479,16.479,0,0,1-1.248-6.272,16.6,16.6,0,1,1,31.957,6.272A1.055,1.055,0,0,0,447.838,341.472Z" transform="translate(-85.145 -85.147)" fill="#fff"/>
  </g>
</svg>
