<svg xmlns="http://www.w3.org/2000/svg" width="37.637" height="38.821" viewBox="0 0 37.637 38.821">
  <g id="Group_575" data-name="Group 575" transform="translate(8.588 0.822) rotate(20)">
    <path id="Path_914" data-name="Path 914" d="M636.319,360.52c-3.736,3.736-4.069,6.436-2.928,7.575s3.784.752,7.519-2.982,7.148-9.406,6.009-10.546S640.053,356.784,636.319,360.52Z" transform="translate(-630.748 -339.807)" fill="#a1957d" stroke="rgba(0,0,0,0)" stroke-width="1"/>
    <path id="Path_915" data-name="Path 915" d="M650.68,360.52c3.734,3.736,4.067,6.436,2.928,7.575s-3.784.752-7.521-2.982-7.147-9.406-6.007-10.546S646.943,356.784,650.68,360.52Z" transform="translate(-624.711 -339.807)" fill="#a1957d" stroke="rgba(0,0,0,0)" stroke-width="1"/>
    <path id="Path_916" data-name="Path 916" d="M651.363,355.472c4.111-4.111,4.477-7.082,3.224-8.336s-4.165-.828-8.277,3.283-7.864,10.351-6.611,11.6S647.253,359.583,651.363,355.472Z" transform="translate(-625.056 -346.515)" fill="#a1957d" stroke="rgba(0,0,0,0)" stroke-width="1"/>
    <path id="Path_917" data-name="Path 917" d="M635.558,355.472c-4.109-4.111-4.475-7.082-3.222-8.336s4.165-.828,8.277,3.283,7.864,10.351,6.611,11.6S639.67,359.583,635.558,355.472Z" transform="translate(-631.7 -346.515)" fill="#a1957d" stroke="rgba(0,0,0,0)" stroke-width="1"/>
  </g>
</svg>
