<svg xmlns="http://www.w3.org/2000/svg" width="84.6" height="84.6" viewBox="0 0 84.6 84.6">
  <g id="Group_401" data-name="Group 401" transform="translate(-10683 -18099)">
    <g id="Ellipse_89" data-name="Ellipse 89" transform="translate(10683 18099)" fill="#fff" stroke="#707070" stroke-width="1">
      <circle cx="42.3" cy="42.3" r="42.3" stroke="none"/>
      <circle cx="42.3" cy="42.3" r="41.8" fill="none"/>
    </g>
    <path id="times-circle-solid" d="M50.3,8A42.3,42.3,0,1,0,92.6,50.3,42.293,42.293,0,0,0,50.3,8ZM71.04,61.4a2.049,2.049,0,0,1,0,2.9L64.286,71.04a2.049,2.049,0,0,1-2.9,0L50.3,59.851,39.2,71.04a2.049,2.049,0,0,1-2.9,0l-6.737-6.754a2.049,2.049,0,0,1,0-2.9L40.748,50.3,29.559,39.2a2.049,2.049,0,0,1,0-2.9l6.754-6.754a2.049,2.049,0,0,1,2.9,0L50.3,40.748,61.4,29.559a2.049,2.049,0,0,1,2.9,0l6.754,6.754a2.049,2.049,0,0,1,0,2.9L59.851,50.3Z" transform="translate(10675 18091)" fill="#a0947e"/>
  </g>
</svg>
