<svg xmlns="http://www.w3.org/2000/svg" width="22.857" height="20" viewBox="0 0 22.857 20">
  <path id="comment-dots-solid" d="M11.429,32C5.116,32,0,36.156,0,41.286a8.242,8.242,0,0,0,2.545,5.835A11.357,11.357,0,0,1,.1,51.4a.355.355,0,0,0-.067.388A.35.35,0,0,0,.357,52a10.209,10.209,0,0,0,6.277-2.295,13.615,13.615,0,0,0,4.795.866c6.313,0,11.429-4.156,11.429-9.286S17.741,32,11.429,32ZM5.714,42.714a1.429,1.429,0,1,1,1.429-1.429A1.427,1.427,0,0,1,5.714,42.714Zm5.714,0a1.429,1.429,0,1,1,1.429-1.429A1.427,1.427,0,0,1,11.429,42.714Zm5.714,0a1.429,1.429,0,1,1,1.429-1.429A1.427,1.427,0,0,1,17.143,42.714Z" transform="translate(0 -32)" fill="#a1957d"/>
</svg>
