<svg xmlns="http://www.w3.org/2000/svg" width="32.444" height="32.444" viewBox="0 0 32.444 32.444">
  <g id="Group_286" data-name="Group 286" transform="translate(0 0)">
    <g id="Group_285" data-name="Group 285">
      <path id="Path_334" data-name="Path 334" d="M69.555,192.526A35.82,35.82,0,0,0,49.29,172.262a1.773,1.773,0,0,0-2.329,1.089l-1.408,4.225a.435.435,0,0,0,.272.55,29.031,29.031,0,0,1,17.866,17.865.433.433,0,0,0,.549.272l4.225-1.408A1.774,1.774,0,0,0,69.555,192.526Z" transform="translate(-37.233 -172.139)" fill="#a1957d"/>
      <path id="Path_335" data-name="Path 335" d="M60.5,197.735A26.816,26.816,0,0,0,44.05,181.29a.448.448,0,0,0-.569.282l-7.248,21.746a1.767,1.767,0,0,0,2.235,2.235L60.213,198.3A.448.448,0,0,0,60.5,197.735Zm-17.507,3.846a1.767,1.767,0,1,1,0-2.5A1.767,1.767,0,0,1,42.988,201.581Zm1.094-6.716a1.1,1.1,0,1,1-1.562,1.561,3.316,3.316,0,0,1,0-4.684,1.1,1.1,0,0,1,1.562,1.561A1.106,1.106,0,0,0,44.082,194.866Zm1.406-8.278a2.65,2.65,0,1,1,0,3.748A2.649,2.649,0,0,1,45.487,186.588ZM50.8,198.77a2.209,2.209,0,1,1,0-3.123A2.208,2.208,0,0,1,50.8,198.77Zm4.4-2.9h-.03a1.106,1.106,0,0,1-1.075-1.134,1.1,1.1,0,0,0-1.075-1.131,1.1,1.1,0,0,1-1.075-1.133,1.147,1.147,0,0,1,1.133-1.076,3.313,3.313,0,0,1,3.227,3.4A1.106,1.106,0,0,1,55.193,195.871Z" transform="translate(-36.139 -173.202)" fill="#a1957d"/>
    </g>
  </g>
</svg>
