<svg xmlns="http://www.w3.org/2000/svg" width="14" height="14" viewBox="0 0 11.272 11.203">
  <path id="Subtraction_2" data-name="Subtraction 2" d="M17.453,15.1a.857.857,0,0,1-.608-.252l-.393-.39a.861.861,0,0,1,.014-1.226l2.7-2.588H12.638a.859.859,0,0,1-.858-.858V9.214a.859.859,0,0,1,.858-.859h6.528l-2.7-2.587a.865.865,0,0,1-.014-1.229l.393-.39a.852.852,0,0,1,1.211,0L21.466,7.56,22.8,8.9a.854.854,0,0,1,0,1.211l-4.744,4.74A.843.843,0,0,1,17.453,15.1Z" transform="translate(-11.78 -3.896)" fill="#fff"/>
</svg>
