<svg xmlns="http://www.w3.org/2000/svg" width="32.44" height="32.44" viewBox="0 0 24.573 31.945">
  <g id="Group_287" data-name="Group 287" transform="translate(0 0)">
    <path id="Path_336" data-name="Path 336" d="M130.435,115a1.638,1.638,0,0,0-1.638,1.638v3.276a9.01,9.01,0,1,1-18.02,0v-3.276a1.638,1.638,0,1,0-3.276,0v3.276a12.3,12.3,0,0,0,10.734,12.178,2.645,2.645,0,0,1-1.555,1.747h-.988a1.638,1.638,0,1,0,0,3.276h8.191a1.638,1.638,0,0,0,0-3.276h-.987a2.649,2.649,0,0,1-1.556-1.747,12.3,12.3,0,0,0,10.735-12.178v-3.276A1.639,1.639,0,0,0,130.435,115Z" transform="translate(-107.5 -105.171)" fill="#a1957d"/>
    <path id="Path_337" data-name="Path 337" d="M124.739,114.467h2.867V111.6h-2.457a1.229,1.229,0,0,1,0-2.457h2.437a6.545,6.545,0,0,0-13.065,0h3a1.251,1.251,0,1,1,0,2.457H114.5v2.867h2.867a1.229,1.229,0,0,1,0,2.457H114.5v.819a6.553,6.553,0,1,0,13.106,0v-.819h-2.867a1.229,1.229,0,0,1,0-2.457Z" transform="translate(-108.766 -103)" fill="#a1957d"/>
  </g>
</svg>
