<svg id="Group_346" data-name="Group 346" xmlns="http://www.w3.org/2000/svg" width="136" height="25" viewBox="0 0 136 25">
  <path id="Polygon_11" data-name="Polygon 11" d="M12.056,2.7a1,1,0,0,1,1.888,0l2.078,5.945a1,1,0,0,0,.918.67l6.256.162a1,1,0,0,1,.587,1.79L18.8,15.129a1,1,0,0,0-.347,1.072l1.784,6.074a1,1,0,0,1-1.531,1.1l-5.133-3.571a1,1,0,0,0-1.142,0L7.3,23.378a1,1,0,0,1-1.531-1.1L7.549,16.2A1,1,0,0,0,7.2,15.129L2.217,11.267A1,1,0,0,1,2.8,9.477L9.06,9.315a1,1,0,0,0,.918-.67Z" fill="#fded82"/>
  <path id="Polygon_12" data-name="Polygon 12" d="M12.056,2.7a1,1,0,0,1,1.888,0l2.078,5.945a1,1,0,0,0,.918.67l6.256.162a1,1,0,0,1,.587,1.79L18.8,15.129a1,1,0,0,0-.347,1.072l1.784,6.074a1,1,0,0,1-1.531,1.1l-5.133-3.571a1,1,0,0,0-1.142,0L7.3,23.378a1,1,0,0,1-1.531-1.1L7.549,16.2A1,1,0,0,0,7.2,15.129L2.217,11.267A1,1,0,0,1,2.8,9.477L9.06,9.315a1,1,0,0,0,.918-.67Z" transform="translate(29)" fill="#fded82"/>
  <path id="Polygon_13" data-name="Polygon 13" d="M11.552,2.82a1,1,0,0,1,1.9,0L15.4,8.635a1,1,0,0,0,.921.681l5.96.16a1,1,0,0,1,.6,1.778l-4.813,3.878a1,1,0,0,0-.335,1.05l1.708,6.049A1,1,0,0,1,17.9,23.314l-4.809-3.48a1,1,0,0,0-1.172,0L7.1,23.314a1,1,0,0,1-1.549-1.082l1.708-6.049a1,1,0,0,0-.335-1.05L2.116,11.254a1,1,0,0,1,.6-1.778l5.96-.16A1,1,0,0,0,9.6,8.635Z" transform="translate(56)" fill="#fded82"/>
  <path id="Polygon_14" data-name="Polygon 14" d="M12.056,2.7a1,1,0,0,1,1.888,0l2.078,5.945a1,1,0,0,0,.918.67l6.256.162a1,1,0,0,1,.587,1.79L18.8,15.129a1,1,0,0,0-.347,1.072l1.784,6.074a1,1,0,0,1-1.531,1.1l-5.133-3.571a1,1,0,0,0-1.142,0L7.3,23.378a1,1,0,0,1-1.531-1.1L7.549,16.2A1,1,0,0,0,7.2,15.129L2.217,11.267A1,1,0,0,1,2.8,9.477L9.06,9.315a1,1,0,0,0,.918-.67Z" transform="translate(82)" fill="#fded82"/>
  <path id="Polygon_15" data-name="Polygon 15" d="M12.056,2.7a1,1,0,0,1,1.888,0l2.078,5.945a1,1,0,0,0,.918.67l6.256.162a1,1,0,0,1,.587,1.79L18.8,15.129a1,1,0,0,0-.347,1.072l1.784,6.074a1,1,0,0,1-1.531,1.1l-5.133-3.571a1,1,0,0,0-1.142,0L7.3,23.378a1,1,0,0,1-1.531-1.1L7.549,16.2A1,1,0,0,0,7.2,15.129L2.217,11.267A1,1,0,0,1,2.8,9.477L9.06,9.315a1,1,0,0,0,.918-.67Z" transform="translate(110)" fill="#fded82"/>
</svg>
