<svg xmlns="http://www.w3.org/2000/svg" width="35" height="23.333" viewBox="0 0 35 23.333">
  <path id="eye-solid" d="M34.789,74.78A19.489,19.489,0,0,0,17.5,64,19.492,19.492,0,0,0,.212,74.78a1.966,1.966,0,0,0,0,1.774A19.489,19.489,0,0,0,17.5,87.333a19.492,19.492,0,0,0,17.289-10.78,1.966,1.966,0,0,0,0-1.774ZM17.5,84.417a8.75,8.75,0,1,1,8.75-8.75A8.75,8.75,0,0,1,17.5,84.417Zm0-14.583a5.791,5.791,0,0,0-1.538.23A2.908,2.908,0,0,1,11.9,74.129a5.82,5.82,0,1,0,5.6-4.3Z" transform="translate(-0.001 -64)" fill="#fff"/>
</svg>
