<svg xmlns="http://www.w3.org/2000/svg" width="27.68" height="25" viewBox="0 0 27.68 25">
  <path id="comment-dots-solid" d="M13.84,32C6.2,32,0,37.2,0,43.607A10.461,10.461,0,0,0,3.082,50.9,14.288,14.288,0,0,1,.119,56.247a.454.454,0,0,0-.081.485A.423.423,0,0,0,.433,57a12.147,12.147,0,0,0,7.6-2.868,16.032,16.032,0,0,0,5.806,1.083c7.645,0,13.84-5.2,13.84-11.607S21.485,32,13.84,32ZM6.92,45.393a1.787,1.787,0,1,1,1.73-1.786A1.757,1.757,0,0,1,6.92,45.393Zm6.92,0a1.787,1.787,0,1,1,1.73-1.786A1.757,1.757,0,0,1,13.84,45.393Zm6.92,0a1.787,1.787,0,1,1,1.73-1.786A1.757,1.757,0,0,1,20.76,45.393Z" transform="translate(0 -32)" fill="#fff" />

</svg>
