<svg xmlns="http://www.w3.org/2000/svg" width="1917.527" height="185.764" viewBox="0 0 1917.527 185.764">
  <path id="Path_931" data-name="Path 931" d="M2056.432,16904.074l17.684-8.574,16.077-7.9,15.407-6.967,5.225-2.545,15-6.432,15.809-6.967,8.852-4.01,11.574-4.756,6.659-2.537,5.866-2.377,7.055-2.7,21.959-8.166,3.329-1.268,9.513-3.33,11.177-3.885,12.287-4.2,17.282-5.549,13.476-4.281,13.239-3.885h0l8.4-2.615,4.36-1.189,29.252-8.086,26.4-6.58,12.208-3.012,12.922-2.854,18.233-3.807,18.629-3.725,26.715-4.678,26.16-4.2,32.5-4.2,29.807-3.092,32.027-2.457,15.7-.873,23.227-.793H2651.9l14.983.477,10.781.4,19.1.951,20.928,1.268,20.135,1.348,24.258,2.063,23.307,2.3,21.245,2.535,16.568,1.982,16.251,2.141,24.258,3.25,27.587,4.281,24.733,3.963,21.483,3.885,25.922,4.756,122.6,25.16,188.063,44.492,41,9.914,71.139,16.611,51.2,11.365,46.6,9.535,60.02,10.584,54.928,8.172,27.6,2.947,18.491,1.549,30.274,2.471,61.493,2.947,73.015,1.875,98.871.938,65.228-.326v1.936l-1917.527-.135Z" transform="translate(-2056.432 -16761.584)" fill="#FFF"/>
</svg>
